<?xml version="1.0" standalone="no"?>
<!DOCTYPE svg PUBLIC "-//W3C//DTD SVG 20010904//EN"
 "http://www.w3.org/TR/2001/REC-SVG-20010904/DTD/svg10.dtd">
<svg version="1.0" xmlns="http://www.w3.org/2000/svg"
 width="100.000000pt" height="100.000000pt" viewBox="0 0 100.000000 100.000000"
 preserveAspectRatio="xMidYMid meet">
<metadata>
Created by potrace 1.14, written by Peter Selinger 2001-2017
</metadata>
<g transform="translate(0.000000,100.000000) scale(0.100000,-0.100000)"
fill="#000000" stroke="none">
<path d="M380 957 c-81 -23 -144 -61 -210 -127 -99 -98 -139 -195 -140 -335 0
-182 98 -339 262 -419 85 -42 126 -50 228 -49 366 7 581 426 377 733 -59 88
-144 153 -248 189 -65 22 -203 26 -269 8z m302 -55 c240 -110 334 -404 202
-630 -147 -250 -498 -291 -701 -81 -189 195 -157 518 66 672 83 57 153 76 266
73 88 -2 108 -6 167 -34z"/>
<path d="M260 540 l0 -166 29 -2 c17 -1 68 -15 115 -30 47 -15 87 -26 87 -23
7 33 2 334 -6 340 -15 12 -92 30 -162 40 l-63 8 0 -167z"/>
<path d="M675 698 c-32 -4 -83 -15 -112 -23 l-53 -16 0 -173 c0 -148 2 -175
16 -180 8 -3 13 -2 9 3 -6 11 99 47 163 57 37 6 42 10 43 33 3 69 1 302 -2
305 -2 1 -31 -1 -64 -6z"/>
<path d="M219 680 c-1 -21 -1 -301 0 -323 1 -10 4 -16 9 -13 4 2 52 -4 107
-14 55 -10 102 -16 103 -14 5 4 -96 33 -141 41 -21 3 -42 13 -46 22 -5 9 -9
78 -9 154 1 90 -3 142 -11 150 -8 8 -11 7 -12 -3z"/>
<path d="M760 538 c0 -84 -4 -158 -8 -164 -4 -7 -25 -15 -46 -18 -58 -9 -145
-36 -151 -47 -4 -5 3 -5 18 0 27 10 120 28 177 35 l35 3 0 168 c0 126 -3 169
-12 173 -10 3 -13 -31 -13 -150z"/>
</g>
</svg>
